<?xml version="1.0" encoding="UTF-8" standalone="no"?>
<!-- Generator: Adobe Illustrator 16.0.0, SVG Export Plug-In . SVG Version: 6.00 Build 0)  -->

<svg
   xmlns:dc="http://purl.org/dc/elements/1.1/"
   xmlns:cc="http://creativecommons.org/ns#"
   xmlns:rdf="http://www.w3.org/1999/02/22-rdf-syntax-ns#"
   xmlns:svg="http://www.w3.org/2000/svg"
   xmlns="http://www.w3.org/2000/svg"
   xmlns:sodipodi="http://sodipodi.sourceforge.net/DTD/sodipodi-0.dtd"
   xmlns:inkscape="http://www.inkscape.org/namespaces/inkscape"
   version="1.1"
   id="Layer_1"
   x="0px"
   y="0px"
   width="255.117"
   height="147.40199"
   viewBox="0 0 255.117 147.402"
   enable-background="new 0 0 255.117 147.402"
   xml:space="preserve"
   inkscape:version="0.91 r13725"
   sodipodi:docname="customCard.svg"><defs
   id="defs20" /><metadata
   id="metadata71"><rdf:RDF><cc:Work
       rdf:about=""><dc:format>image/svg+xml</dc:format><dc:type
         rdf:resource="http://purl.org/dc/dcmitype/StillImage" /></cc:Work></rdf:RDF></metadata>
   <sodipodi:namedview
   pagecolor="#ffffff"
   bordercolor="#666666"
   borderopacity="1"
   objecttolerance="10"
   gridtolerance="10"
   guidetolerance="10"
   inkscape:pageopacity="0"
   inkscape:pageshadow="2"
   inkscape:window-width="1366"
   inkscape:window-height="715"
   id="namedview67"
   showgrid="false"
   inkscape:zoom="2.2421085"
   inkscape:cx="63.199099"
   inkscape:cy="63.081457"
   inkscape:window-x="-8"
   inkscape:window-y="-8"
   inkscape:window-maximized="1"
   inkscape:current-layer="Layer_1"
   units="mm"
   showguides="true"
   inkscape:guide-bbox="true"><sodipodi:guide
     orientation="1,0"
     position="181.07955,17.84035"
     id="guide3611" /></sodipodi:namedview>
	 
<path
   d="m 237.908,147.40199 v -0.137 c -0.296,0.027 -0.579,0.09 -0.868,0.137 h 0.868 z"
   id="path3"
   inkscape:connector-curvature="0"
   style="fill:#a6dce5" />
































<text
   transform="scale(1.00015,0.99985003)"
   font-size="10"
   id="name"
   inkscape:label="#text27"
   style="font-size:10.00150013px;font-family:Arial-BoldMT"
   x="87.128555"
   y="59.544708" />















<g
   id="color2"
   style="fill:#ffe9c7;fill-opacity:1"
   inkscape:label="#g3829"
   transform="translate(0,-1.0808051e-5)"><path
     id="path5"
     d="m 14.042,147.39 c 0.014,-0.375 0.043,-0.746 0.043,-1.125 0,-1.639 -0.161,-3.242 -0.396,-4.816 4.88,-1.053 9.091,-3.863 11.975,-7.727 1.445,1.07 3.216,1.721 5.146,1.721 2.966,0 5.577,-1.49 7.146,-3.756 3.652,3.313 8.484,5.346 13.806,5.346 6.814,0 12.834,-3.326 16.583,-8.43 2.636,9.045 9.764,16.156 18.807,18.787 h 15.48 c 4.451,-1.305 8.438,-3.691 11.65,-6.865 2.477,2.498 5.701,4.238 9.31,4.883 0,0.137 -0.02,0.271 -0.02,0.41 0,0.529 0.038,1.049 0.063,1.572 h 131.482 v -5.898 c -0.826,-0.182 -1.677,-0.289 -2.557,-0.289 -2.986,0 -5.686,1.135 -7.781,2.941 -2.139,-2.469 -5.579,-3.828 -9.087,-3.102 -2.648,-4.408 -6.411,-8.336 -14.209,-7.924 -5.543,0.293 -8.508,3.57 -8.649,3.648 -8.06,-10.189 -23.684,-9.553 -27.14,-7.516 -5.742,-9.979 -16.491,-16.715 -28.836,-16.715 -6.13,0 -11.854,1.684 -16.788,4.578 -3.198,-3.842 -8.013,-6.291 -13.404,-6.291 -2,0 -3.919,0.357 -5.71,0.979 -3.754,-10.809 -14.002,-18.58 -26.092,-18.58 -10.58,0 -19.762,5.945 -24.406,14.676 -3.253,-7.09 -10.39,-12.023 -18.697,-12.023 -7.284,0 -13.669,3.793 -17.329,9.504 -1.005,-0.41 -2.098,-0.645 -3.251,-0.645 -2.73,0 -5.138,1.283 -6.731,3.254 -3.717,-4.113 -9.078,-6.713 -15.058,-6.713 -3.579,0 -6.931,0.941 -9.849,2.568 v 43.547 h 14.499 z"
     style="fill:#ffe9c7;fill-opacity:1"
     inkscape:connector-curvature="0" /><g
     id="g49"
     style="fill:#ffe9c7;fill-opacity:1">
	<g
   id="g51"
   style="fill:#ffe9c7;fill-opacity:1">
		<circle
   id="circle53"
   r="2.221"
   cy="57.216"
   cx="29.183001"
   style="fill:#ffe9c7;fill-opacity:1"
   sodipodi:cx="29.183001"
   sodipodi:cy="57.216"
   sodipodi:rx="2.221"
   sodipodi:ry="2.221" />
		<circle
   id="circle55"
   r="2.221"
   cy="49.904999"
   cx="29.183001"
   style="fill:#ffe9c7;fill-opacity:1"
   sodipodi:cx="29.183001"
   sodipodi:cy="49.904999"
   sodipodi:rx="2.221"
   sodipodi:ry="2.221" />
		<circle
   id="circle57"
   r="2.221"
   cy="42.591999"
   cx="29.183001"
   style="fill:#ffe9c7;fill-opacity:1"
   sodipodi:cx="29.183001"
   sodipodi:cy="42.591999"
   sodipodi:rx="2.221"
   sodipodi:ry="2.221" />
		<circle
   id="circle59"
   r="2.221"
   cy="35.280998"
   cx="29.183001"
   style="fill:#ffe9c7;fill-opacity:1"
   sodipodi:cx="29.183001"
   sodipodi:cy="35.280998"
   sodipodi:rx="2.221"
   sodipodi:ry="2.221" />
	</g>
	<polygon
   id="polygon61"
   points="36.806,26.687 29.079,13.303 21.354,26.687 "
   style="fill:#ffe9c7;fill-opacity:1" />
</g></g>

<text
   xml:space="preserve"
   style="font-style:normal;font-weight:normal;font-size:40px;line-height:125%;font-family:sans-serif;text-align:center;letter-spacing:0px;word-spacing:0px;text-anchor:middle;fill:#000000;fill-opacity:1;stroke:none;stroke-width:1px;stroke-linecap:butt;stroke-linejoin:miter;stroke-opacity:1"
   x="130.27785"
   y="58.646252"
   id="text3357"
   sodipodi:linespacing="125%"><tspan
     sodipodi:role="line"
     id="tspan3359"
     x="130.27785"
     y="58.646252"
     style="font-size:11.25px;text-align:center;text-anchor:middle">This is a custom card design</tspan><tspan
     sodipodi:role="line"
     x="132.25539"
     y="72.708755"
     style="font-size:11.25px;text-align:center;text-anchor:middle"
     id="tspan3363"> </tspan></text>

</svg>