<?xml version="1.0" encoding="UTF-8" standalone="no"?>
<!-- Generator: Adobe Illustrator 16.0.0, SVG Export Plug-In . SVG Version: 6.00 Build 0)  -->

<svg
   xmlns:dc="http://purl.org/dc/elements/1.1/"
   xmlns:cc="http://creativecommons.org/ns#"
   xmlns:rdf="http://www.w3.org/1999/02/22-rdf-syntax-ns#"
   xmlns:svg="http://www.w3.org/2000/svg"
   xmlns="http://www.w3.org/2000/svg"
   xmlns:xlink="http://www.w3.org/1999/xlink"
   xmlns:sodipodi="http://sodipodi.sourceforge.net/DTD/sodipodi-0.dtd"
   xmlns:inkscape="http://www.inkscape.org/namespaces/inkscape"
   version="1.1"
   id="Layer_1"
   x="0px"
   y="0px"
   width="255.117"
   height="147.40199"
   viewBox="0 0 255.117 147.402"
   enable-background="new 0 0 255.117 147.402"
   xml:space="preserve"
   inkscape:version="0.91 r13725"
   sodipodi:docname="1440223057210.svg"><metadata
   id="metadata71"><rdf:RDF><cc:Work
       rdf:about=""><dc:format>image/svg+xml</dc:format><dc:type
         rdf:resource="http://purl.org/dc/dcmitype/StillImage" /></cc:Work></rdf:RDF></metadata><defs
   id="defs69">
	

	

	

	

	
</defs><sodipodi:namedview
   pagecolor="#ffffff"
   bordercolor="#666666"
   borderopacity="1"
   objecttolerance="10"
   gridtolerance="10"
   guidetolerance="10"
   inkscape:pageopacity="0"
   inkscape:pageshadow="2"
   inkscape:window-width="1366"
   inkscape:window-height="715"
   id="namedview67"
   showgrid="false"
   inkscape:zoom="2.2421085"
   inkscape:cx="63.199099"
   inkscape:cy="63.081457"
   inkscape:window-x="-8"
   inkscape:window-y="-8"
   inkscape:window-maximized="1"
   inkscape:current-layer="Layer_1"
   units="mm"
   showguides="true"
   inkscape:guide-bbox="true"><sodipodi:guide
     orientation="1,0"
     position="181.07955,17.84035"
     id="guide3611" /></sodipodi:namedview>
	 
<path
   d="m 237.908,147.40199 v -0.137 c -0.296,0.027 -0.579,0.09 -0.868,0.137 h 0.868 z"
   id="path3"
   inkscape:connector-curvature="0"
   style="fill:#a6dce5" />
<image
   x="73.591446"
   y="15.610308"
   xlink:href=""
   height="72.887238"
   width="80.023369"
   class="logo" 
   inkscape:label="#image8" />

<text
   style="font-size:7.00105px;font-family:ArialMT"
   id="email"
   font-size="7"
   transform="scale(1.00015,0.99985003)"
   x="181.14374"
   y="65.056137"
   inkscape:label="#text11">Email Id</text>





<text
   style="font-size:7.00105px;font-family:ArialMT"
   id="address1"
   font-size="7"
   transform="scale(1.00015,0.99985003)"
   x="181.70778"
   y="79.511398"
   inkscape:label="#text15">Address Line 1</text>





<text
   style="font-size:7.00105px;font-family:ArialMT"
   id="address2"
   font-size="7"
   transform="scale(1.00015,0.99985003)"
   x="181.70778"
   y="89.199356"
   inkscape:label="#text16">Address Line 2</text>





<text
   transform="scale(1.00015,0.99985003)"
   font-size="7"
   id="website"
   inkscape:label="#text21"
   style="font-size:7.00105px;font-family:ArialMT"
   x="181.61206"
   y="106.114">Website</text>





<text
   style="font-size:7.00105px;font-family:ArialMT"
   id="mobile"
   font-size="7"
   transform="scale(1.00015,0.99985003)"
   x="181.17792"
   y="55.988384"
   inkscape:label="#text25">Mob</text>





<text
   transform="scale(1.00015,0.99985003)"
   font-size="10"
   id="name"
   inkscape:label="#text27"
   style="font-size:10.00150013px;font-family:Arial-BoldMT"
   x="181.66823"
   y="24.750807">Your Name</text>





<text
   style="font-size:8.00119972px;font-family:ArialMT"
   id="designation"
   font-size="8"
   transform="scale(1.00015,0.99985003)"
   x="181.08025"
   y="33.675426"
   inkscape:label="#text31">Designation</text>






<rect
   x="21.351"
   y="26.686979"
   width="15.455"
   height="38.084"
   id="color3"
   inkscape:label="#rect47"
   style="fill:#d94141" />
<g
   id="color2"
   style="fill:#ffe9c7;fill-opacity:1"
   inkscape:label="#g3829"
   transform="translate(0,-1.0808051e-5)"><path
     id="path5"
     d="m 14.042,147.39 c 0.014,-0.375 0.043,-0.746 0.043,-1.125 0,-1.639 -0.161,-3.242 -0.396,-4.816 4.88,-1.053 9.091,-3.863 11.975,-7.727 1.445,1.07 3.216,1.721 5.146,1.721 2.966,0 5.577,-1.49 7.146,-3.756 3.652,3.313 8.484,5.346 13.806,5.346 6.814,0 12.834,-3.326 16.583,-8.43 2.636,9.045 9.764,16.156 18.807,18.787 h 15.48 c 4.451,-1.305 8.438,-3.691 11.65,-6.865 2.477,2.498 5.701,4.238 9.31,4.883 0,0.137 -0.02,0.271 -0.02,0.41 0,0.529 0.038,1.049 0.063,1.572 h 131.482 v -5.898 c -0.826,-0.182 -1.677,-0.289 -2.557,-0.289 -2.986,0 -5.686,1.135 -7.781,2.941 -2.139,-2.469 -5.579,-3.828 -9.087,-3.102 -2.648,-4.408 -6.411,-8.336 -14.209,-7.924 -5.543,0.293 -8.508,3.57 -8.649,3.648 -8.06,-10.189 -23.684,-9.553 -27.14,-7.516 -5.742,-9.979 -16.491,-16.715 -28.836,-16.715 -6.13,0 -11.854,1.684 -16.788,4.578 -3.198,-3.842 -8.013,-6.291 -13.404,-6.291 -2,0 -3.919,0.357 -5.71,0.979 -3.754,-10.809 -14.002,-18.58 -26.092,-18.58 -10.58,0 -19.762,5.945 -24.406,14.676 -3.253,-7.09 -10.39,-12.023 -18.697,-12.023 -7.284,0 -13.669,3.793 -17.329,9.504 -1.005,-0.41 -2.098,-0.645 -3.251,-0.645 -2.73,0 -5.138,1.283 -6.731,3.254 -3.717,-4.113 -9.078,-6.713 -15.058,-6.713 -3.579,0 -6.931,0.941 -9.849,2.568 v 43.547 h 14.499 z"
     style="fill:#ffe9c7;fill-opacity:1"
     inkscape:connector-curvature="0" /><g
     id="g49"
     style="fill:#ffe9c7;fill-opacity:1">
	<g
   id="g51"
   style="fill:#ffe9c7;fill-opacity:1">
		<circle
   id="circle53"
   r="2.221"
   cy="57.216"
   cx="29.183001"
   style="fill:#ffe9c7;fill-opacity:1"
   sodipodi:cx="29.183001"
   sodipodi:cy="57.216"
   sodipodi:rx="2.221"
   sodipodi:ry="2.221" />
		<circle
   id="circle55"
   r="2.221"
   cy="49.904999"
   cx="29.183001"
   style="fill:#ffe9c7;fill-opacity:1"
   sodipodi:cx="29.183001"
   sodipodi:cy="49.904999"
   sodipodi:rx="2.221"
   sodipodi:ry="2.221" />
		<circle
   id="circle57"
   r="2.221"
   cy="42.591999"
   cx="29.183001"
   style="fill:#ffe9c7;fill-opacity:1"
   sodipodi:cx="29.183001"
   sodipodi:cy="42.591999"
   sodipodi:rx="2.221"
   sodipodi:ry="2.221" />
		<circle
   id="circle59"
   r="2.221"
   cy="35.280998"
   cx="29.183001"
   style="fill:#ffe9c7;fill-opacity:1"
   sodipodi:cx="29.183001"
   sodipodi:cy="35.280998"
   sodipodi:rx="2.221"
   sodipodi:ry="2.221" />
	</g>
	<polygon
   id="polygon61"
   points="36.806,26.687 29.079,13.303 21.354,26.687 "
   style="fill:#ffe9c7;fill-opacity:1" />
</g></g>
<g
   id="color1"
   style="fill:#231f20;fill-opacity:1"
   inkscape:label="#g3824"
   transform="translate(0,-1.0808051e-5)"><path
     inkscape:label="#path7"
     id="color"
     d="m 154.852,145.24 c -1.08,0 -2.132,0.111 -3.155,0.309 -1.726,-3.348 -5.177,-5.66 -9.202,-5.66 -1.729,0 -3.331,0.463 -4.767,1.209 -4.2,-5.461 -10.784,-9 -18.205,-9 -4.232,0 -8.185,1.164 -11.589,3.158 -1.616,-0.549 -3.299,-0.949 -5.037,-1.195 -0.723,-6.973 -6.618,-12.412 -13.781,-12.412 -1.532,0 -2.999,0.26 -4.378,0.717 -3.772,-7.65 -11.63,-12.928 -20.734,-12.928 -6.856,0 -12.999,2.996 -17.233,7.734 -2.257,-4.617 -6.681,-7.985 -11.95,-8.754 L 32.4,78.84 c 2.604,-1.242 4.407,-3.893 4.407,-6.969 v -0.173 c 3.836,1.575 4.933,5.388 4.933,5.388 0.927,2.111 1.916,0.963 1.916,0.963 0,0 -0.212,-8.631 -1.186,-10.865 -0.591,-1.356 -3.477,-3.627 -5.663,-5.21 v -4.3 c 0,-4.268 -3.459,-7.728 -7.727,-7.728 -4.27,0 -7.729,3.459 -7.729,7.728 v 4.224 c -2.197,1.585 -5.167,3.908 -5.768,5.286 -0.975,2.234 -1.186,10.865 -1.186,10.865 0,0 0.989,1.148 1.915,-0.963 0,0 1.118,-3.879 5.038,-5.427 v 0.212 c 0,3.076 1.803,5.725 4.407,6.969 l -2.663,32.535 c -3.905,2.892 -6.449,7.519 -6.449,12.75 0,0.02 0.005,0.033 0.005,0.055 -6.327,0.249 -12.104,2.605 -16.65,6.4 v 16.822 h 163.023 c -2.412,-1.373 -5.198,-2.162 -8.171,-2.162 z"
     style="fill:#231f20;fill-opacity:1"
     inkscape:connector-curvature="0" /><g
     id="g63"
     style="fill:#231f20;fill-opacity:1">
	<polygon
   id="polygon65"
   points="25.974,18.682 29.079,13.303 32.184,18.682 "
   style="fill:#231f20;fill-opacity:1" />
</g></g>
</svg>