<?xml version="1.0" encoding="UTF-8" standalone="no"?>
<!-- Generator: Adobe Illustrator 16.0.0, SVG Export Plug-In . SVG Version: 6.00 Build 0)  -->

<svg
   xmlns:dc="http://purl.org/dc/elements/1.1/"
   xmlns:cc="http://creativecommons.org/ns#"
   xmlns:rdf="http://www.w3.org/1999/02/22-rdf-syntax-ns#"
   xmlns:svg="http://www.w3.org/2000/svg"
   xmlns="http://www.w3.org/2000/svg"
   xmlns:xlink="http://www.w3.org/1999/xlink"
   xmlns:sodipodi="http://sodipodi.sourceforge.net/DTD/sodipodi-0.dtd"
   xmlns:inkscape="http://www.inkscape.org/namespaces/inkscape"
   version="1.1"
   id="Layer_1"
   x="0px"
   y="0px"
   width="255.118px"
   height="147.402px"
   viewBox="0 0 255.118 147.402"
   enable-background="new 0 0 255.118 147.402"
   xml:space="preserve"
   inkscape:version="0.91 r13725"
   sodipodi:docname="1440223197465.svg"><metadata
   id="metadata159"><rdf:RDF><cc:Work
       rdf:about=""><dc:format>image/svg+xml</dc:format><dc:type
         rdf:resource="http://purl.org/dc/dcmitype/StillImage" /></cc:Work></rdf:RDF></metadata><defs
   id="defs157">
	

	

	

	

	
</defs><sodipodi:namedview
   pagecolor="#ffffff"
   bordercolor="#666666"
   borderopacity="1"
   objecttolerance="10"
   gridtolerance="10"
   guidetolerance="10"
   inkscape:pageopacity="0"
   inkscape:pageshadow="2"
   inkscape:window-width="1366"
   inkscape:window-height="715"
   id="namedview155"
   showgrid="false"
   inkscape:zoom="1.8169047"
   inkscape:cx="45.596102"
   inkscape:cy="74.094212"
   inkscape:window-x="-8"
   inkscape:window-y="-8"
   inkscape:window-maximized="1"
   inkscape:current-layer="Layer_1" />



























<g
   id="color3"
   inkscape:label="#g4012"><path
     id="path3"
     d="M84.862,47.61V0h-2.374v47.61C83.271,47.351,84.062,47.83,84.862,47.61z"
     fill="#E2F1F2" /><path
     id="path5"
     d="M78.347,47.61V0H75.25v47.61C76.262,47.071,77.293,48.076,78.347,47.61z"
     fill="#E2F1F2" /><path
     id="path7"
     d="M89.898,47.61V0h-2.196v47.61C88.427,47.46,89.161,47.727,89.898,47.61z"
     fill="#E2F1F2" /><rect
     id="rect9"
     height="47.61"
     width="4.477"
     x="55.944"
     fill="#E2F1F2" /><path
     id="path11"
     d="M73.182,47.61V0h-1.897v47.61C71.908,47.196,72.54,47.995,73.182,47.61z"
     fill="#E2F1F2" /><rect
     id="rect13"
     height="47.61"
     width="1.681"
     x="52.188"
     fill="#E2F1F2" /><path
     id="path15"
     d="M96.281,47.61V0h-4.313v47.61C93.387,47.452,94.827,47.64,96.281,47.61z"
     fill="#E2F1F2" /><rect
     id="rect17"
     height="47.61"
     width="2.021"
     x="27.333"
     fill="#E2F1F2" /><rect
     id="rect19"
     height="47.61"
     width="2.023"
     x="31.167"
     fill="#E2F1F2" /><rect
     id="rect21"
     height="47.61"
     width="2.242"
     x="35.257"
     fill="#E2F1F2" /><rect
     id="rect23"
     height="47.61"
     width="2.413"
     x="41.632"
     fill="#E2F1F2" /><rect
     id="rect25"
     height="47.61"
     width="3.619"
     x="64.559"
     fill="#E2F1F2" /><rect
     id="rect27"
     height="47.61"
     width="3.227"
     x="47.153"
     fill="#E2F1F2" /><path
     id="path59"
     d="M84.862,147.364v-14.199h-2.374v14.199C83.271,147.286,84.062,147.431,84.862,147.364z"
     fill="#E2F1F2" /><path
     id="path61"
     d="M78.347,147.364v-14.199H75.25v14.199C76.262,147.204,77.293,147.503,78.347,147.364z"
     fill="#E2F1F2" /><path
     id="path63"
     d="M89.898,147.364v-14.199h-2.196v14.199C88.427,147.319,89.161,147.399,89.898,147.364z"
     fill="#E2F1F2" /><rect
     id="rect65"
     height="14.199"
     width="4.477"
     y="133.165"
     x="55.944"
     fill="#E2F1F2" /><path
     id="path67"
     d="M73.182,147.364v-14.199h-1.897v14.199C71.908,147.241,72.54,147.479,73.182,147.364z"
     fill="#E2F1F2" /><rect
     id="rect69"
     height="14.199"
     width="1.681"
     y="133.165"
     x="52.188"
     fill="#E2F1F2" /><path
     id="path71"
     d="M96.281,147.364v-14.199h-4.313v14.199C93.387,147.317,94.827,147.373,96.281,147.364z"
     fill="#E2F1F2" /><rect
     id="rect73"
     height="14.199"
     width="2.021"
     y="133.165"
     x="27.333"
     fill="#E2F1F2" /><rect
     id="rect75"
     height="14.199"
     width="2.023"
     y="133.165"
     x="31.167"
     fill="#E2F1F2" /><rect
     id="rect77"
     height="14.199"
     width="2.242"
     y="133.165"
     x="35.257"
     fill="#E2F1F2" /><rect
     id="rect79"
     height="14.199"
     width="2.413"
     y="133.165"
     x="41.632"
     fill="#E2F1F2" /><rect
     id="rect81"
     height="14.199"
     width="3.619"
     y="133.165"
     x="64.559"
     fill="#E2F1F2" /><rect
     id="rect83"
     height="14.199"
     width="3.227"
     y="133.165"
     x="47.153"
     fill="#E2F1F2" /></g>






<g
   id="color1"
   inkscape:label="#g3212"><g
     id="g29">
	<rect
   id="rect31"
   height="47.610001"
   width="2.0669999"
   x="33.189999"
   y="0"
   style="fill:#991947" />
	<rect
   id="rect33"
   height="47.610001"
   width="2.075"
   x="53.868999"
   y="0"
   style="fill:#991947" />
	<rect
   id="rect35"
   height="47.610001"
   width="2.0680001"
   x="73.181999"
   y="0"
   style="fill:#991947" />
	<path
   id="path37"
   d="m 97.199,47.61 c 0.386,0 0.768,-0.009 1.152,0 V 0 h -2.07 v 47.61 c 0.306,-0.006 0.61,0 0.918,0 z"
   inkscape:connector-curvature="0"
   style="fill:#991947" />
	<rect
   id="rect39"
   height="47.610001"
   width="3.1070001"
   x="44.044998"
   y="0"
   style="fill:#991947" />
	<rect
   id="rect41"
   height="47.610001"
   width="3.1059999"
   x="68.178001"
   y="0"
   style="fill:#991947" />
	<rect
   id="rect43"
   height="47.610001"
   width="2.8399999"
   x="84.862"
   y="0"
   style="fill:#991947" />
</g><rect
     id="rect85"
     height="14.199"
     width="2.0669999"
     y="133.16499"
     x="33.189999"
     style="fill:#991947" /><rect
     id="rect87"
     height="14.199"
     width="2.075"
     y="133.16499"
     x="53.868999"
     style="fill:#991947" /><rect
     id="rect89"
     height="14.199"
     width="2.0680001"
     y="133.16499"
     x="73.181999"
     style="fill:#991947" /><path
     id="path91"
     d="m 97.199,147.364 c 0.386,0 0.768,-0.002 1.152,0 v -14.199 h -2.07 v 14.199 c 0.306,-0.002 0.61,0 0.918,0 z"
     inkscape:connector-curvature="0"
     style="fill:#991947" /><rect
     id="rect93"
     height="14.199"
     width="3.1070001"
     y="133.16499"
     x="44.044998"
     style="fill:#991947" /><rect
     id="rect95"
     height="14.199"
     width="3.1059999"
     y="133.16499"
     x="68.178001"
     style="fill:#991947" /><rect
     id="rect97"
     height="14.199"
     width="2.8399999"
     y="133.16499"
     x="84.862"
     style="fill:#991947" /></g>





<g
   id="color2"
   style="fill:#87a3c8;fill-opacity:1"><g
     id="g45"
     style="fill:#87a3c8;fill-opacity:1">
	<rect
   id="rect47"
   height="47.610001"
   width="4.1329999"
   x="37.5"
   y="0"
   style="fill:#87a3c8;fill-opacity:1" />
	<rect
   id="rect49"
   height="47.610001"
   width="4.1389999"
   x="60.419998"
   y="0"
   style="fill:#87a3c8;fill-opacity:1" />
	<rect
   id="rect51"
   height="47.610001"
   width="1.809"
   x="50.379002"
   y="0"
   style="fill:#87a3c8;fill-opacity:1" />
	<rect
   id="rect53"
   height="47.610001"
   width="1.813"
   x="29.354"
   y="0"
   style="fill:#87a3c8;fill-opacity:1" />
	<path
   id="path55"
   d="m 82.323,47.61 c 0.056,-0.018 0.109,0.02 0.165,0 V 0 h -4.141 v 47.61 h 3.976 z"
   inkscape:connector-curvature="0"
   style="fill:#87a3c8;fill-opacity:1" />
	<path
   id="path57"
   d="M 91.967,47.61 V 0 h -2.069 v 47.61 c 0.685,-0.107 1.376,0.078 2.069,0 z"
   inkscape:connector-curvature="0"
   style="fill:#87a3c8;fill-opacity:1" />
</g><rect
     style="fill:#87a3c8;fill-opacity:1"
     id="rect99"
     height="14.199"
     width="4.1329999"
     y="133.16499"
     x="37.5" /><rect
     style="fill:#87a3c8;fill-opacity:1"
     id="rect101"
     height="14.199"
     width="4.1389999"
     y="133.16499"
     x="60.419998" /><rect
     style="fill:#87a3c8;fill-opacity:1"
     id="rect103"
     height="14.199"
     width="1.809"
     y="133.16499"
     x="50.379002" /><rect
     style="fill:#87a3c8;fill-opacity:1"
     id="rect105"
     height="14.199"
     width="1.813"
     y="133.16499"
     x="29.354" /><path
     style="fill:#87a3c8;fill-opacity:1"
     inkscape:connector-curvature="0"
     id="path107"
     d="m 82.323,147.364 c 0.056,-0.005 0.109,0.006 0.165,0 v -14.199 h -4.141 v 14.199 h 3.976 z" /><path
     style="fill:#87a3c8;fill-opacity:1"
     inkscape:connector-curvature="0"
     id="path109"
     d="m 91.967,147.364 v -14.199 h -2.069 v 14.199 c 0.685,-0.032 1.376,0.024 2.069,0 z" /></g>
<text
   transform="scale(1.00015,0.99985003)"
   font-size="10"
   id="name"
   inkscape:label="#text111"
   x="151.92938"
   y="40.269737"
   style="font-size:10.00150013px;fill:#991947;font-family:Arial-BoldMT">Your Name</text>



<text
   style="font-size:8.00119972px;fill:#1d1d1b;font-family:ArialMT"
   id="designation"
   font-size="8"
   transform="scale(1.00015,0.99985003)"
   x="151.3414"
   y="51.195179"
   inkscape:label="#text115">Designation</text>



<text
   style="font-size:7.00105px;fill:#1d1d1b;font-family:ArialMT"
   id="mobile"
   font-size="7"
   transform="scale(1.00015,0.99985003)"
   x="151.43907"
   y="74.329544"
   inkscape:label="#text119">Mob</text>



<text
   style="font-size:7.00105px;fill:#1d1d1b;font-family:ArialMT"
   id="email"
   font-size="7"
   transform="scale(1.00015,0.99985003)"
   x="151.40488"
   y="86.730804"
   inkscape:label="#text123">Email Id</text>



<text
   style="font-size:7.00105px;fill:#1d1d1b;font-family:ArialMT"
   id="address1"
   font-size="7"
   transform="scale(1.00015,0.99985003)"
   x="151.96893"
   y="101.18607"
   inkscape:label="#text127">Address Line 1</text>



<text
   style="font-size:7.00105px;fill:#1d1d1b;font-family:ArialMT"
   id="address2"
   font-size="7"
   transform="scale(1.00015,0.99985003)"
   x="151.96893"
   y="110.87404"
   inkscape:label="#text131">Address Line 2</text>



<text
   transform="scale(1.00015,0.99985003)"
   font-size="7"
   id="website"
   inkscape:label="#text133"
   x="151.87321"
   y="127.78869"
   style="font-size:7.00105px;fill:#991947;font-family:ArialMT">Website</text>




<image
   x="22.181999"
   y="53.167782"
   xlink:href=""
   height="72.887238"
   width="80.023369"
   class="logo" 
   inkscape:label="#image8" /></svg>