<?xml version="1.0" encoding="UTF-8" standalone="no"?>
<!-- Generator: Adobe Illustrator 16.0.0, SVG Export Plug-In . SVG Version: 6.00 Build 0)  -->

<svg
   xmlns:dc="http://purl.org/dc/elements/1.1/"
   xmlns:cc="http://creativecommons.org/ns#"
   xmlns:rdf="http://www.w3.org/1999/02/22-rdf-syntax-ns#"
   xmlns:svg="http://www.w3.org/2000/svg"
   xmlns="http://www.w3.org/2000/svg"
   xmlns:xlink="http://www.w3.org/1999/xlink"
   xmlns:sodipodi="http://sodipodi.sourceforge.net/DTD/sodipodi-0.dtd"
   xmlns:inkscape="http://www.inkscape.org/namespaces/inkscape"
   version="1.1"
   id="Layer_1"
   x="0px"
   y="0px"
   width="255.118px"
   height="147.402px"
   viewBox="0 0 255.118 147.402"
   enable-background="new 0 0 255.118 147.402"
   xml:space="preserve"
   inkscape:version="0.91 r13725"
   sodipodi:docname="1440223367785.svg"><metadata
   id="metadata67"><rdf:RDF><cc:Work
       rdf:about=""><dc:format>image/svg+xml</dc:format><dc:type
         rdf:resource="http://purl.org/dc/dcmitype/StillImage" /></cc:Work></rdf:RDF></metadata><defs
   id="defs65">
	
</defs><sodipodi:namedview
   pagecolor="#ffffff"
   bordercolor="#666666"
   borderopacity="1"
   objecttolerance="10"
   gridtolerance="10"
   guidetolerance="10"
   inkscape:pageopacity="0"
   inkscape:pageshadow="2"
   inkscape:window-width="1366"
   inkscape:window-height="715"
   id="namedview63"
   showgrid="false"
   inkscape:zoom="1.5377559"
   inkscape:cx="-89.730509"
   inkscape:cy="77.809055"
   inkscape:window-x="-8"
   inkscape:window-y="-8"
   inkscape:window-maximized="1"
   inkscape:current-layer="Layer_1" />
<text
   transform="scale(1.00015,0.99985003)"
   font-size="10"
   id="name"
   inkscape:label="#text3"
   x="40.533989"
   y="21.351803"
   style="font-size:10.00150013px;fill:#231f20;font-family:Arial-BoldMT">Your Name</text>




<text
   transform="scale(1.00015,0.99985003)"
   font-size="8"
   id="designation"
   inkscape:label="#text5"
   x="39.946011"
   y="32.27734"
   style="font-size:8.00119972px;fill:#231f20;font-family:ArialMT">Designation</text>




<text
   transform="scale(1.00015,0.99985003)"
   font-size="7"
   id="mobile"
   inkscape:label="#text7"
   x="40.043682"
   y="52.323246"
   style="font-size:7.00105px;fill:#231f20;font-family:ArialMT">Mob</text>




<text
   transform="scale(1.00015,0.99985003)"
   font-size="7"
   id="email"
   inkscape:label="#text9"
   x="40.009499"
   y="67.018852"
   style="font-size:7.00105px;fill:#231f20;font-family:ArialMT">Email Id</text>




<text
   transform="scale(1.00015,0.99985003)"
   font-size="7"
   id="address1"
   inkscape:label="#text11"
   x="40.573547"
   y="81.714355"
   style="font-size:7.00105px;fill:#231f20;font-family:ArialMT">Address Line 1</text>




<text
   style="font-size:7.00105px;fill:#231f20;font-family:ArialMT"
   id="address2"
   font-size="7"
   transform="scale(1.00015,0.99985003)"
   x="40.573547"
   y="91.401405"
   inkscape:label="#text15">Address Line 2</text>




<text
   transform="matrix(1.0003 0 0 1 40.4839 106.7666)"
   fill="#231F20"
   font-family="'ArialMT'"
   font-size="7"
   id="website"
   inkscape:label="#text17">Website</text>




<g
   id="color1"
   inkscape:label="#g19"
   style="fill:#d3620f;fill-opacity:1">
	<polygon
   points="0.438,84.649 0,82.503 0,84.206  "
   id="polygon21"
   fill="#D3620F"
   style="fill:#d3620f;fill-opacity:1" />
	<path
   d="M5.812,110.778l-3.816-3.86l2.473-2.499l-1.63-7.993L0,93.553v1.997l0.022,0.029L0,95.599v11.301   l6.589,6.662C6.3,112.649,6.044,111.721,5.812,110.778z"
   id="path23"
   fill="#D3620F"
   style="fill:#d3620f;fill-opacity:1" />
	<polygon
   points="244.074,0 232.087,0 232.402,1.546 235.634,4.815 233.508,6.966 233.847,8.625 242.234,0.146    246.853,4.815 235.428,16.37 237.686,27.433 242.234,22.832 246.853,27.503 239.267,35.177 239.605,36.835 242.234,34.178    255.118,47.209 255.118,41.845 253.458,43.524 248.834,38.854 255.118,32.499 255.118,30.493 253.458,32.177 237.612,16.159    242.234,11.49 255.118,24.516 255.118,19.151 253.458,20.831 248.834,16.159 255.118,9.807 255.118,7.806 253.458,9.483  "
   id="polygon25"
   fill="#D3620F"
   style="fill:#d3620f;fill-opacity:1" />
	<path
   d="M240.545,87.196c-1.415,2.893-3.138,5.627-5.139,8.151l0.228,0.231l-4.617,4.671l-0.058-0.058   c-2.288,2.149-4.816,4.067-7.548,5.711l12.222,12.363l-4.617,4.673l-13.789-13.944c-2.458,1-5.032,1.804-7.718,2.365l-0.879,0.183   l-0.05,0.051l-0.033-0.032l-1.643,0.342l6.293,6.363l-4.617,4.673l-9.333-9.436l-1.645,0.345l4.371,4.418l-15.834,16.015   l-4.623-4.67l15.465-15.634l-8.674,1.813l2.449,2.477l-4.616,4.673l-5.491-5.551l-1.638,0.343l0.529,0.535l-15.838,16.015   l-4.623-4.67l9.621-9.726l-2.496,0.521l-2.502,2.532l-1.646-1.665l-9.999,2.088l-10.797,10.919l-4.619-4.67l3.776-3.816   l-7.901,1.65l13.363,13.511l-4.619,4.67l-15.837-16.015l0.853-0.862l-2.499,0.521l-4.954,5.011l-3.262-3.294l-1.641,0.344   l9.522,9.625l-4.619,4.674l-12.562-12.698l-10.938,2.285l5.677,5.739l-4.617,4.67l-8.716-8.811l-1.641,0.344l3.757,3.797   l-6.083,6.155h-9.247l9.395-9.497l-7.124,1.488l1.834,1.854l-4.611,4.674l-4.877-4.929l-1.864,0.389l-5.948,6.021h-9.243   l3.616-3.655c-0.764,0.122-1.526,0.227-2.287,0.311l-1.839,1.859l-1.611-1.628c-2.569,0.081-5.11-0.053-7.598-0.406l-3.478,3.52   h-9.241l5.216-5.274c-0.495-0.163-0.987-0.33-1.475-0.508l-4.254,4.301l-15.846-16.019l1.402-1.416   c-0.302-0.362-0.599-0.729-0.89-1.102l-7.108,7.188l-4.622-4.67l8.019-8.105c-0.239-0.429-0.461-0.87-0.686-1.307l-2.711,2.74   L0,116.246v1.997l0.022,0.023L0,118.289v11.299l11.242,11.368l-4.623,4.67L0,138.936v2.003l0.022,0.018L0,140.982v6.42h255.118   v-0.291h-1.151l1.151-1.164v-1.999l-1.66,1.682l-15.847-16.019l4.622-4.669l12.884,13.024v-5.363l-1.66,1.678l-4.624-4.67   l6.284-6.353v-2l-1.66,1.681l-15.847-16.021l4.622-4.667l12.884,13.029v-5.364l-1.66,1.678l-4.624-4.676l6.284-6.351v-1.995   l-1.66,1.678L240.545,87.196z M16.38,147.111H7.133l10.705-10.826l4.621,4.671L16.38,147.111z M106.134,147.111h-9.237   l10.701-10.826l4.619,4.671L106.134,147.111z M128.576,147.111h-9.245l10.708-10.826l4.619,4.671L128.576,147.111z M219.8,113.599   l4.615,4.668l-15.834,16.015l-4.628-4.67L219.8,113.599z M151.014,147.111h-9.241l10.705-10.826l4.622,4.671L151.014,147.111z    M147.859,129.611l4.619-4.669l15.841,16.014l-4.619,4.67L147.859,129.611z M179.516,140.982l-6.06,6.129h-9.241l10.705-10.826   l4.596,4.653l0.023,0.018L179.516,140.982z M179.516,138.936l-9.219-9.324l4.622-4.669l15.836,16.014l-4.616,4.67L179.516,138.936z    M195.898,147.111h-9.245l10.703-10.826l4.617,4.671L195.898,147.111z M192.734,129.611l4.622-4.669l15.842,16.014l-4.617,4.674   L192.734,129.611z M218.334,147.111h-9.243l10.709-10.826l4.615,4.671L218.334,147.111z M215.175,129.611l4.625-4.669   l15.834,16.014l-4.617,4.67L215.175,129.611z M242.234,136.285l4.619,4.671l-6.083,6.155h-9.241L242.234,136.285z M242.234,113.599   l4.619,4.668l-15.836,16.015l-4.623-4.67L242.234,113.599z M231.017,111.594l-4.623-4.676l15.839-16.009l4.619,4.67   L231.017,111.594z"
   id="path27"
   fill="#D3620F"
   style="fill:#d3620f;fill-opacity:1" />
	<path
   d="M245.016,69.026c-0.017,0.641-0.046,1.275-0.09,1.911l1.927,1.948l-2.471,2.499   c-0.303,1.737-0.704,3.45-1.21,5.127l11.946,12.08v-5.367l-1.66,1.68l-4.624-4.675l6.284-6.354v-1.997l-1.66,1.683L245.016,69.026z   "
   id="path29"
   fill="#D3620F"
   style="fill:#d3620f;fill-opacity:1" />
	<polygon
   points="240.641,41.912 241.525,46.242 242.234,45.525 246.853,50.196 243.105,53.987 244.074,58.729    255.118,69.896 255.118,64.531 253.458,66.212 248.834,61.542 255.118,55.188 255.118,53.187 253.458,54.868  "
   id="polygon31"
   fill="#D3620F"
   style="fill:#d3620f;fill-opacity:1" />
</g>
<path
   d="M236.104,62.235l-8.873-62.187l-7.775-0.002l9.037,59.019c2.606,18.278-10.349,35.386-28.783,38.031  l-142.5,20.444c-18.448,2.651-35.659-10.127-38.272-28.389L6.653,0.001L0.048,0l13.443,94.196  c2.776,19.399,21.06,32.975,40.657,30.158l151.379-21.719C225.11,99.826,238.872,81.651,236.104,62.235z"
   id="color2"
   fill="#819B15"
   inkscape:label="#path33" />

<image
   x="130.36647"
   y="11.462737"
   xlink:href=""
   height="72.887238"
   width="80.023369"
   class="logo"
   inkscape:label="#image8"
   id="image8" /></svg>