<?xml version="1.0" encoding="UTF-8" standalone="no"?>
<!-- Generator: Adobe Illustrator 16.0.0, SVG Export Plug-In . SVG Version: 6.00 Build 0)  -->

<svg
   xmlns:dc="http://purl.org/dc/elements/1.1/"
   xmlns:cc="http://creativecommons.org/ns#"
   xmlns:rdf="http://www.w3.org/1999/02/22-rdf-syntax-ns#"
   xmlns:svg="http://www.w3.org/2000/svg"
   xmlns="http://www.w3.org/2000/svg"
   xmlns:xlink="http://www.w3.org/1999/xlink"
   xmlns:sodipodi="http://sodipodi.sourceforge.net/DTD/sodipodi-0.dtd"
   xmlns:inkscape="http://www.inkscape.org/namespaces/inkscape"
   version="1.1"
   id="Layer_1"
   x="0px"
   y="0px"
   width="255.118px"
   height="147.402px"
   viewBox="0 0 255.118 147.402"
   enable-background="new 0 0 255.118 147.402"
   xml:space="preserve"
   inkscape:version="0.91 r13725"
   sodipodi:docname="1440223646415.svg"><metadata
   id="metadata51"><rdf:RDF><cc:Work
       rdf:about=""><dc:format>image/svg+xml</dc:format><dc:type
         rdf:resource="http://purl.org/dc/dcmitype/StillImage" /></cc:Work></rdf:RDF></metadata><defs
   id="defs49">
	

	

	

	

	
</defs><sodipodi:namedview
   pagecolor="#ffffff"
   bordercolor="#666666"
   borderopacity="1"
   objecttolerance="10"
   gridtolerance="10"
   guidetolerance="10"
   inkscape:pageopacity="0"
   inkscape:pageshadow="2"
   inkscape:window-width="1366"
   inkscape:window-height="715"
   id="namedview47"
   showgrid="false"
   inkscape:zoom="2.2420998"
   inkscape:cx="112.64445"
   inkscape:cy="68.466983"
   inkscape:window-x="-8"
   inkscape:window-y="-8"
   inkscape:window-maximized="1"
   inkscape:current-layer="Layer_1" />
<path
   fill="#29ABE2"
   d="M158.12,0c-8.295,1.679-14.92,5.215-19.867,10.619c-5.325,5.815-7.987,12.628-7.987,20.433  c0,2.843,0.593,6.875,1.783,12.096c1.241,5.117,1.861,8.84,1.861,11.167c0,4.394-1.603,8.258-4.808,11.593  c-3.206,3.334-7.651,5.39-13.337,6.164v3.257c5.531,0.725,9.925,2.728,13.182,6.01c3.257,3.284,4.886,6.94,4.886,10.973  c0,1.812-0.594,5.635-1.784,11.477c-1.19,5.945-1.783,10.313-1.783,13.105c0,7.496,2.791,14.229,8.374,20.2  c5.104,5.457,11.506,8.889,19.201,10.309h97.278V0H158.12z"
   id="color2"
   inkscape:label="#path3" />
<path
   d="M255.118,6.164h-94.693c-11.359,2.606-17.039,8.258-17.039,17.895c0,2.213,0.443,5.287,1.328,9.22  c1.426,6.344,2.139,10.818,2.139,13.425c0,5.802-1.881,11.063-5.643,15.785c-3.761,4.721-9.331,8.385-16.707,10.99  c6.982,2.558,12.453,6.282,16.412,11.177c3.957,4.892,5.938,9.993,5.938,15.303c0,2.757-0.542,6.542-1.623,11.362  c-1.229,5.899-1.844,9.957-1.844,12.169c0,4.326,1.426,8.09,4.278,11.286c2.851,3.195,7.106,5.185,12.761,6.463h94.693V6.164z"
   id="color1"
   fill="#3C3C3C"
   inkscape:label="#path5" />
<text
   transform="scale(1.00015,0.99985003)"
   font-size="10"
   id="name"
   inkscape:label="#text7"
   x="169.92668"
   y="35.446716"
   style="font-size:10.00150013px;fill:#29abe2;font-family:Arial-BoldMT">Your Name</text>



<text
   style="font-size:8.00119972px;fill:#ffffff;font-family:ArialMT"
   id="designation"
   font-size="8"
   transform="scale(1.00015,0.99985003)"
   x="169.3387"
   y="46.371655"
   inkscape:label="#text11">Designation</text>



<text
   style="font-size:7.00105px;fill:#ffffff;font-family:ArialMT"
   id="mobile"
   font-size="7"
   transform="scale(1.00015,0.99985003)"
   x="169.43637"
   y="69.506027"
   inkscape:label="#text15">Mob</text>



<text
   style="font-size:7.00105px;fill:#ffffff;font-family:ArialMT"
   id="email"
   font-size="7"
   transform="scale(1.00015,0.99985003)"
   x="169.40218"
   y="81.90728"
   inkscape:label="#text19">Email Id</text>



<text
   style="font-size:7.00105px;fill:#ffffff;font-family:ArialMT"
   id="address1"
   font-size="7"
   transform="scale(1.00015,0.99985003)"
   x="169.96623"
   y="96.362534"
   inkscape:label="#text23">Address Line 1</text>



<text
   style="font-size:7.00105px;fill:#ffffff;font-family:ArialMT"
   id="address2"
   font-size="7"
   transform="scale(1.00015,0.99985003)"
   x="169.96623"
   y="106.05152"
   inkscape:label="#text27">Address Line 2</text>



<text
   transform="scale(1.00015,0.99985003)"
   font-size="7"
   id="website"
   inkscape:label="#text29"
   x="169.87051"
   y="123.96638"
   style="font-size:7.00105px;fill:#29abe2;font-family:ArialMT">Website</text>




<image
   x="21.091751"
   y="31.122499"
   xlink:href=""
   height="72.887238"
   width="80.023369"
   class="logo"
   inkscape:label="#image8"
   id="image8" /></svg>