<?xml version="1.0" encoding="UTF-8" standalone="no"?>
<!-- Generator: Adobe Illustrator 16.0.0, SVG Export Plug-In . SVG Version: 6.00 Build 0)  -->

<svg
   xmlns:dc="http://purl.org/dc/elements/1.1/"
   xmlns:cc="http://creativecommons.org/ns#"
   xmlns:rdf="http://www.w3.org/1999/02/22-rdf-syntax-ns#"
   xmlns:svg="http://www.w3.org/2000/svg"
   xmlns="http://www.w3.org/2000/svg"
   xmlns:xlink="http://www.w3.org/1999/xlink"
   xmlns:sodipodi="http://sodipodi.sourceforge.net/DTD/sodipodi-0.dtd"
   xmlns:inkscape="http://www.inkscape.org/namespaces/inkscape"
   version="1.1"
   id="Layer_1"
   x="0px"
   y="0px"
   width="255.118px"
   height="147.402px"
   viewBox="0 0 255.118 147.402"
   enable-background="new 0 0 255.118 147.402"
   xml:space="preserve"
   inkscape:version="0.91 r13725"
   sodipodi:docname="1440223749901.svg"><metadata
   id="metadata169"><rdf:RDF><cc:Work
       rdf:about=""><dc:format>image/svg+xml</dc:format><dc:type
         rdf:resource="http://purl.org/dc/dcmitype/StillImage" /></cc:Work></rdf:RDF></metadata><defs
   id="defs167">
	

	

	

	

	

	

	
</defs><sodipodi:namedview
   pagecolor="#ffffff"
   bordercolor="#666666"
   borderopacity="1"
   objecttolerance="10"
   gridtolerance="10"
   guidetolerance="10"
   inkscape:pageopacity="0"
   inkscape:pageshadow="2"
   inkscape:window-width="1366"
   inkscape:window-height="715"
   id="namedview165"
   showgrid="false"
   inkscape:zoom="3.1708079"
   inkscape:cx="59.455071"
   inkscape:cy="75.82858"
   inkscape:window-x="-8"
   inkscape:window-y="-8"
   inkscape:window-maximized="1"
   inkscape:current-layer="Layer_1" />
<g
   id="color1"
   inkscape:label="#g3">
	<polygon
   points="66.347,20.003 86.344,-0.081 81.746,-0.081 61.775,20.003  "
   id="polygon5"
   fill="#00A3B3" />
	<polygon
   points="8.158,-0.081 0,8.124 0,12.73 12.757,-0.081  "
   id="polygon7"
   fill="#00A3B3" />
	<polygon
   points="20.423,-0.081 0,20.458 0,25.05 25.021,-0.081  "
   id="polygon9"
   fill="#00A3B3" />
	<polygon
   points="24.109,106.918 0,131.086 0,135.815 24.109,111.672  "
   id="polygon11"
   fill="#00A3B3" />
	<polygon
   points="32.688,-0.081 0,32.79 0,37.365 37.286,-0.081  "
   id="polygon13"
   fill="#00A3B3" />
	<polygon
   points="41.818,20.003 61.815,-0.081 57.216,-0.081 37.246,20.003  "
   id="polygon15"
   fill="#00A3B3" />
	<polygon
   points="0,-0.081 0,0.413 0.492,-0.081  "
   id="polygon17"
   fill="#00A3B3" />
	<polygon
   points="24.109,57.882 0,82.128 0,86.637 24.109,62.423  "
   id="polygon19"
   fill="#00A3B3" />
	<polygon
   points="24.109,70.216 0,94.459 0,98.954 24.109,74.74  "
   id="polygon21"
   fill="#00A3B3" />
	<polygon
   points="24.109,94.884 0.148,118.979 0.148,111.123 24.109,87.059 24.109,82.55 0,106.793 0,123.739    24.109,99.457  "
   id="polygon23"
   fill="#00A3B3" />
	<polygon
   points="24.109,45.547 0,69.794 0,74.32 24.109,50.106  "
   id="polygon25"
   fill="#00A3B3" />
	<polygon
   points="24.109,20.88 0,45.126 0,49.686 24.109,25.472  "
   id="polygon27"
   fill="#00A3B3" />
	<polygon
   points="24.109,33.214 0,57.46 0,62.002 24.109,37.788  "
   id="polygon29"
   fill="#00A3B3" />
	<polygon
   points="54.083,20.003 74.08,-0.081 69.481,-0.081 49.51,20.003  "
   id="polygon31"
   fill="#00A3B3" />
	<polygon
   points="214.07,20.003 234.105,-0.081 229.638,-0.081 209.603,20.003  "
   id="polygon33"
   fill="#00A3B3" />
	<polygon
   points="202.259,20.003 222.142,-0.081 217.326,-0.081 197.29,20.003  "
   id="polygon35"
   fill="#00A3B3" />
	<polygon
   points="177.142,20.003 197.176,-0.081 192.713,-0.081 172.677,20.003  "
   id="polygon37"
   fill="#00A3B3" />
	<polygon
   points="78.612,20.003 98.609,-0.081 94.01,-0.081 74.039,20.003  "
   id="polygon39"
   fill="#00A3B3" />
	<polygon
   points="226.421,20.003 246.406,-0.081 241.94,-0.081 221.905,20.003  "
   id="polygon41"
   fill="#00A3B3" />
	<polygon
   points="116.554,14.252 114.134,16.676 117.495,20.003 122.364,20.003  "
   id="polygon43"
   fill="#00A3B3" />
	<polygon
   points="131.018,127.337 127.344,127.337 129.192,129.167  "
   id="polygon45"
   fill="#00A3B3" />
	<polygon
   points="189.884,20.003 209.83,-0.081 205.012,-0.081 184.976,20.003  "
   id="polygon47"
   fill="#00A3B3" />
	<polygon
   points="130.248,20.003 134.912,20.003 125.826,11.009 125.348,10.49 125.865,10.011 135.934,-0.081    130.852,-0.081 120.471,10.325  "
   id="polygon49"
   fill="#00A3B3" />
	<polygon
   points="102.996,20.003 106.275,16.7 110.192,12.776 112.613,10.348 116.53,6.422 123.017,-0.081    118.54,-0.081 98.569,20.003  "
   id="polygon51"
   fill="#00A3B3" />
	<polygon
   points="90.876,20.003 110.873,-0.081 106.275,-0.081 86.304,20.003  "
   id="polygon53"
   fill="#00A3B3" />
	<polygon
   points="152.466,20.003 153.231,19.232 153.26,19.261 172.552,-0.081 168.064,-0.081 148.028,20.003  "
   id="polygon55"
   fill="#00A3B3" />
	<polygon
   points="164.841,20.003 184.876,-0.081 180.388,-0.081 160.354,20.003  "
   id="polygon57"
   fill="#00A3B3" />
	<polygon
   points="141.486,18.707 160.23,-0.081 155.762,-0.081 141.878,13.838 137.954,9.918 147.927,-0.081    143.769,-0.081 133.206,10.51  "
   id="polygon59"
   fill="#00A3B3" />
	<polygon
   points="29.554,20.003 49.55,-0.081 44.952,-0.081 24.981,20.003  "
   id="polygon61"
   fill="#00A3B3" />
	<polygon
   points="231.316,125.54 255.118,101.683 255.118,97.513 231.316,121.373  "
   id="polygon63"
   fill="#00A3B3" />
	<polygon
   points="222.381,147.321 255.118,114.505 255.118,109.534 217.422,147.321  "
   id="polygon65"
   fill="#00A3B3" />
	<polygon
   points="231.316,113.52 255.118,89.659 255.118,85.492 231.316,109.352  "
   id="polygon67"
   fill="#00A3B3" />
	<polygon
   points="225.366,127.337 205.43,147.321 209.587,147.321 229.523,127.337  "
   id="polygon69"
   fill="#00A3B3" />
	<polygon
   points="231.316,101.496 255.118,77.637 255.118,73.16 231.316,97.021  "
   id="polygon71"
   fill="#00A3B3" />
	<polygon
   points="234.681,147.321 255.118,126.837 255.118,122.361 230.217,147.321  "
   id="polygon73"
   fill="#00A3B3" />
	<polygon
   points="247.598,147.321 255.118,139.782 255.118,134.691 242.518,147.321  "
   id="polygon75"
   fill="#00A3B3" />
	<polygon
   points="231.316,63.84 255.118,39.98 255.118,35.803 231.316,59.626  "
   id="polygon77"
   fill="#00A3B3" />
	<polygon
   points="231.316,39.708 255.118,15.848 255.118,11.317 231.316,35.172  "
   id="polygon79"
   fill="#00A3B3" />
	<polygon
   points="231.316,89.166 255.118,65.307 255.118,60.107 231.316,84.122  "
   id="polygon81"
   fill="#00A3B3" />
	<polygon
   points="254.24,-0.081 231.316,22.898 231.316,27.44 255.118,3.385 255.118,-0.081  "
   id="polygon83"
   fill="#00A3B3" />
	<polygon
   points="231.316,51.807 255.118,27.948 255.118,23.702 231.316,47.563  "
   id="polygon85"
   fill="#00A3B3" />
	<polygon
   points="213.373,127.337 193.436,147.321 197.594,147.321 217.53,127.337  "
   id="polygon87"
   fill="#00A3B3" />
	<polygon
   points="231.316,76.256 255.118,52.253 255.118,47.834 231.316,71.653  "
   id="polygon89"
   fill="#00A3B3" />
	<polygon
   points="90.342,127.337 70.383,147.321 75.354,147.321 95.044,127.337  "
   id="polygon91"
   fill="#00A3B3" />
	<polygon
   points="78.776,127.337 58.458,147.321 63.105,147.321 83.379,127.337  "
   id="polygon93"
   fill="#00A3B3" />
	<polygon
   points="24.109,124.178 24.109,119.187 0,143.331 0,147.321 0.995,147.321  "
   id="polygon95"
   fill="#00A3B3" />
	<polygon
   points="66.188,127.337 46.474,147.321 51.684,147.321 71.396,127.337  "
   id="polygon97"
   fill="#00A3B3" />
	<polygon
   points="59.237,127.337 53.273,127.337 33.337,147.321 39.19,147.321  "
   id="polygon99"
   fill="#00A3B3" />
	<polygon
   points="27.943,127.337 7.984,147.321 13.029,147.321 32.966,127.337  "
   id="polygon101"
   fill="#00A3B3" />
	<polygon
   points="102.831,127.337 83.141,147.321 87.506,147.321 107.197,127.337  "
   id="polygon103"
   fill="#00A3B3" />
	<polygon
   points="39.455,127.337 19.509,147.321 25.501,147.321 45.438,127.337  "
   id="polygon105"
   fill="#00A3B3" />
	<polygon
   points="150.726,127.337 131.051,147.321 136.033,147.321 155.97,127.337  "
   id="polygon107"
   fill="#00A3B3" />
	<polygon
   points="175.671,127.337 155.702,147.321 160.843,147.321 180.661,127.337  "
   id="polygon109"
   fill="#00A3B3" />
	<polygon
   points="120.559,127.337 113.68,127.337 93.926,147.321 98.69,147.321 116.955,129.124 120.88,133.045    106.526,147.321 111.082,147.321 126.067,132.562  "
   id="polygon111"
   fill="#00A3B3" />
	<polygon
   points="188.484,127.337 168.677,147.321 173.301,147.321 193.237,127.337  "
   id="polygon113"
   fill="#00A3B3" />
	<polygon
   points="163.666,127.337 143.699,147.321 148.036,147.321 167.972,127.337  "
   id="polygon115"
   fill="#00A3B3" />
	<polygon
   points="201.071,127.337 181.135,147.321 185.602,147.321 205.538,127.337  "
   id="polygon117"
   fill="#00A3B3" />
	<polygon
   points="143.658,127.337 137.964,127.337 118.24,147.321 123.723,147.321  "
   id="polygon119"
   fill="#00A3B3" />
</g>
<text
   style="font-size:10.00150013px;fill:#1d1d1b;font-family:Arial-BoldMT"
   id="name"
   font-size="10"
   transform="scale(1.00015,0.99985003)"
   x="144.71567"
   y="39.269588"
   inkscape:label="#text123">Your Name</text>



<text
   style="font-size:8.00119972px;fill:#1d1d1b;font-family:ArialMT"
   id="designation"
   font-size="8"
   transform="scale(1.00015,0.99985003)"
   x="144.12769"
   y="49.193878"
   inkscape:label="#text127">Designation</text>



<text
   style="font-size:7.00105px;fill:#1d1d1b;font-family:ArialMT"
   id="mobile"
   font-size="7"
   transform="scale(1.00015,0.99985003)"
   x="144.22536"
   y="67.327499"
   inkscape:label="#text131">Mob</text>



<text
   style="font-size:7.00105px;fill:#1d1d1b;font-family:ArialMT"
   id="email"
   font-size="7"
   transform="scale(1.00015,0.99985003)"
   x="144.19116"
   y="78.729607"
   inkscape:label="#text135">Email Id</text>



<text
   style="font-size:7.00105px;fill:#1d1d1b;font-family:ArialMT"
   id="address1"
   font-size="7"
   transform="scale(1.00015,0.99985003)"
   x="144.75522"
   y="93.184875"
   inkscape:label="#text139">Address Line 1</text>



<text
   style="font-size:7.00105px;fill:#1d1d1b;font-family:ArialMT"
   id="address2"
   font-size="7"
   transform="scale(1.00015,0.99985003)"
   x="144.75522"
   y="102.87283"
   inkscape:label="#text143">Address Line 2</text>



<text
   style="font-size:7.00105px;fill:#1d1d1b;font-family:ArialMT"
   id="website"
   font-size="7"
   transform="scale(1.00015,0.99985003)"
   x="144.6595"
   y="116.78702"
   inkscape:label="#text147">Website</text>




<image
   x="39.147953"
   y="34.952507"
   xlink:href=""
   height="72.887238"
   width="80.023369"
   class="logo"
   inkscape:label="#image8"
   id="image8" /></svg>